<svg width="2709" height="483" viewBox="0 0 2709 483" fill="none" xmlns="http://www.w3.org/2000/svg">
<g clip-path="url(#clip0_1274_1200)">
<path d="M200.964 23.2054C225.836 8.84584 256.479 8.84583 281.35 23.2054L409.813 97.3733C434.684 111.733 450.006 138.27 450.006 166.989V315.325C450.006 344.044 434.684 370.582 409.813 384.941L281.35 459.109C256.479 473.469 225.836 473.469 200.964 459.109L72.5018 384.941C47.6304 370.582 32.3089 344.044 32.3089 315.325V166.989C32.3089 138.27 47.6304 111.733 72.5018 97.3733L200.964 23.2054Z" fill="url(#paint0_linear_1274_1200)"/>
<g filter="url(#filter0_d_1274_1200)">
<path d="M52.5664 251.605L126.061 385.893C130.12 393.309 135.628 398.095 138.364 396.582L371.186 267.815L408.195 150.516C409.229 147.237 404.672 138.911 401.364 138.036L282.993 106.67L50.1706 235.437C47.4349 236.95 48.5077 244.189 52.5664 251.605Z" fill="#E6BE94"/>
<path d="M262.893 223.226L406.549 143.774L406.049 142.861C404.661 140.5 402.896 138.439 401.363 138.033L282.993 106.669L218.595 142.286L262.893 223.226Z" fill="#FFD788"/>
<path d="M52.5664 251.605L126.061 385.893C130.12 393.309 135.628 398.095 138.364 396.582L371.186 267.815C365.714 270.842 354.697 261.269 346.58 246.437C338.462 231.605 336.316 217.127 341.788 214.1C336.316 217.127 325.3 207.554 317.182 192.722C309.065 177.89 306.919 163.412 312.391 160.385C306.919 163.412 295.902 153.839 287.784 139.007C279.667 124.175 277.521 109.697 282.993 106.67L50.1706 235.437C47.4349 236.95 48.5077 244.189 52.5664 251.605Z" fill="#FFCD00"/>
<path d="M341.788 214.1C336.316 217.126 325.299 207.554 317.182 192.722C309.748 179.139 307.4 165.964 311.246 161.497L74.8158 292.259L104.214 345.974L340.643 215.212C340.998 214.802 341.327 214.355 341.788 214.1Z" fill="url(#paint1_linear_1274_1200)"/>
<path d="M371.186 267.815C365.714 270.841 354.697 261.269 346.58 246.437C339.146 232.853 336.798 219.679 340.643 215.212L104.214 345.974L126.262 386.26C130.321 393.676 135.829 398.462 138.565 396.949L370.041 268.927C370.396 268.516 370.725 268.07 371.186 267.815Z" fill="url(#paint2_linear_1274_1200)"/>
<path d="M283.396 107.407C277.924 110.433 280.07 124.912 288.188 139.744C295.621 153.327 305.435 162.373 311.246 161.499L74.8167 292.26L52.7684 251.974C48.7097 244.558 47.637 237.319 50.3726 235.806L281.849 107.784C282.383 107.702 282.935 107.662 283.396 107.407Z" fill="url(#paint3_linear_1274_1200)"/>
<path d="M392.423 200.5L408.194 150.514C409.228 147.234 404.671 138.909 401.362 138.032L350.921 124.668L392.423 200.5Z" fill="#5C546A"/>
<path d="M406.568 143.763C405.133 141.006 403.099 138.492 401.363 138.033L350.921 124.668L371.875 162.954L406.568 143.763Z" fill="#868491"/>
</g>
</g>
<g filter="url(#filter1_d_1274_1200)">
<path d="M662.9 384.277C734.258 384.277 782.065 350.365 782.065 296.67C782.065 258.282 758.279 237.322 703.171 226.489L658.661 217.775C634.168 212.83 626.396 205.765 626.396 194.696C626.396 180.801 640.056 171.852 660.309 171.852C684.802 171.852 697.519 185.04 710.236 197.757C717.301 204.351 729.312 208.12 738.732 208.12C760.399 208.12 770.526 196.344 770.526 180.33C770.526 176.326 769.819 172.323 768.406 168.319C759.221 140.059 719.656 115.566 661.016 115.566C590.129 115.566 546.089 147.83 546.089 199.406C546.089 238.264 572.23 264.876 622.864 274.768L667.61 283.717C690.925 288.427 699.168 294.55 699.168 305.854C699.168 319.749 685.273 327.992 663.606 327.992C640.291 327.992 624.277 320.927 610.147 305.383C598.136 293.608 587.067 288.191 573.879 288.191C555.038 288.191 541.379 301.144 541.379 319.514C541.379 323.753 542.557 328.698 544.441 333.644C556.451 363.082 597.429 384.277 662.9 384.277ZM854.836 383.571C879.093 383.571 896.521 369.441 896.521 340.238V301.615L917.716 282.068L968.114 354.839C982.009 376.741 992.371 383.571 1011.45 383.571C1035.23 383.571 1051.72 368.263 1051.72 345.184C1051.72 334.35 1048.89 327.05 1039.47 314.097L980.596 236.145L1034.76 185.276C1047.24 173.736 1051.25 165.729 1051.25 152.776C1051.25 131.816 1035.23 116.273 1013.57 116.273C1000.61 116.273 991.194 121.454 979.419 133.464L897.934 217.304H896.521V76.2367C896.521 47.0341 879.093 32.9037 854.836 32.9037C830.344 32.9037 812.917 47.0341 812.917 76.2367V340.238C812.917 369.441 830.344 383.571 854.836 383.571ZM1195.85 384.277C1276.63 384.277 1327.02 335.528 1327.02 249.804C1327.02 165.729 1275.92 115.566 1195.85 115.566C1116.25 115.566 1064.67 165.964 1064.67 249.804C1064.67 335.292 1115.07 384.277 1195.85 384.277ZM1195.85 323.046C1167.12 323.046 1149.45 296.905 1149.45 250.039C1149.45 203.88 1167.59 176.797 1195.85 176.797C1224.34 176.797 1242.48 203.88 1242.48 250.039C1242.48 296.905 1224.34 323.046 1195.85 323.046ZM1482.69 384.277C1563.47 384.277 1613.87 335.528 1613.87 249.804C1613.87 165.729 1562.76 115.566 1482.69 115.566C1403.09 115.566 1351.52 165.964 1351.52 249.804C1351.52 335.292 1401.91 384.277 1482.69 384.277ZM1482.69 323.046C1453.96 323.046 1436.3 296.905 1436.3 250.039C1436.3 203.88 1454.43 176.797 1482.69 176.797C1511.19 176.797 1529.32 203.88 1529.32 250.039C1529.32 296.905 1511.19 323.046 1482.69 323.046ZM1689.47 383.571C1713.72 383.571 1731.15 369.441 1731.15 340.238V76.2367C1731.15 47.0341 1713.72 32.9037 1689.47 32.9037C1664.97 32.9037 1647.55 47.0341 1647.55 76.2367V340.238C1647.55 369.441 1664.97 383.571 1689.47 383.571ZM1793.8 309.387C1793.8 356.959 1818.99 381.451 1868.45 381.451H1870.57C1902.83 381.451 1929.21 369.205 1929.21 344.948C1929.21 325.637 1918.38 317.394 1899.77 315.274L1894.59 314.568C1882.82 313.39 1877.4 307.032 1877.4 291.017V183.392H1897.65C1916.26 183.392 1928.5 171.145 1928.5 152.54C1928.5 133.935 1916.26 121.689 1897.65 121.689H1877.4V101.2C1877.4 74.1171 1862.09 57.8673 1835.72 57.8673C1809.1 57.8673 1793.8 74.1171 1793.8 101.2V121.689H1784.61C1766.01 121.689 1753.76 133.7 1753.76 152.54C1753.76 171.145 1766.01 183.392 1784.61 183.392H1793.8V309.387ZM1999.86 383.571C2025.3 383.571 2041.55 368.499 2041.55 340.238V240.148C2041.55 210.946 2049.79 198.228 2078.52 197.522C2094.06 196.815 2105.84 193.283 2113.61 186.218C2121.38 179.388 2125.39 169.497 2125.39 156.308C2125.39 141.236 2121.15 130.638 2112.9 124.515C2107.49 120.041 2099.95 117.921 2090.53 117.921C2064.86 117.921 2046.02 136.291 2039.66 170.91H2038.01V158.192C2038.01 131.109 2022 116.273 1998.68 116.273C1974.43 116.273 1957.94 131.109 1957.94 157.957V340.238C1957.94 368.499 1974.19 383.571 1999.86 383.571ZM2217.7 381.922C2248.56 381.922 2279.88 367.557 2293.77 341.651H2295.42V347.539C2297.78 372.031 2313.56 383.571 2335.69 383.571C2359.48 383.571 2376.67 370.147 2376.67 341.651V202.232C2376.67 150.656 2331.22 115.566 2262.69 115.566C2203.81 115.566 2160.95 134.877 2150.11 166.671C2148.23 171.616 2147.52 175.855 2147.52 181.743C2147.52 199.641 2161.65 212.123 2181.67 212.123C2194.39 212.123 2204.99 207.413 2214.64 197.757C2230.66 180.33 2240.55 175.149 2258.45 175.149C2280.35 175.149 2294.95 186.453 2294.95 206.942V221.543L2234.9 225.076C2168.48 229.08 2131.51 255.927 2131.51 303.97C2131.51 350.365 2169.9 381.922 2217.7 381.922ZM2247.38 324.459C2227.36 324.459 2213.94 314.568 2213.94 298.318C2213.94 283.246 2226.42 273.119 2248.32 271.47L2294.95 268.409V286.072C2294.95 308.916 2272.81 324.459 2247.38 324.459ZM2460.04 383.571C2484.3 383.571 2501.72 369.441 2501.72 340.238V301.615L2522.92 282.068L2573.32 354.839C2587.21 376.741 2597.57 383.571 2616.65 383.571C2640.44 383.571 2656.92 368.263 2656.92 345.184C2656.92 334.35 2654.1 327.05 2644.68 314.097L2585.8 236.145L2639.97 185.276C2652.45 173.736 2656.45 165.729 2656.45 152.776C2656.45 131.816 2640.44 116.273 2618.77 116.273C2605.82 116.273 2596.4 121.454 2584.62 133.464L2503.14 217.304H2501.72V76.2367C2501.72 47.0341 2484.3 32.9037 2460.04 32.9037C2435.55 32.9037 2418.12 47.0341 2418.12 76.2367V340.238C2418.12 369.441 2435.55 383.571 2460.04 383.571Z" fill="#2D3748"/>
</g>
<defs>
<filter id="filter0_d_1274_1200" x="29.1397" y="62.8013" width="437.643" height="369.042" filterUnits="userSpaceOnUse" color-interpolation-filters="sRGB">
<feFlood flood-opacity="0" result="BackgroundImageFix"/>
<feColorMatrix in="SourceAlpha" type="matrix" values="0 0 0 0 0 0 0 0 0 0 0 0 0 0 0 0 0 0 127 0" result="hardAlpha"/>
<feOffset dy="16.0772"/>
<feGaussianBlur stdDeviation="8.03858"/>
<feColorMatrix type="matrix" values="0 0 0 0 0 0 0 0 0 0 0 0 0 0 0 0 0 0 0.25 0"/>
<feBlend mode="normal" in2="BackgroundImageFix" result="effect1_dropShadow_1274_1200"/>
<feBlend mode="normal" in="SourceGraphic" in2="effect1_dropShadow_1274_1200" result="shape"/>
</filter>
<filter id="filter1_d_1274_1200" x="525.302" y="32.9038" width="2147.7" height="383.528" filterUnits="userSpaceOnUse" color-interpolation-filters="sRGB">
<feFlood flood-opacity="0" result="BackgroundImageFix"/>
<feColorMatrix in="SourceAlpha" type="matrix" values="0 0 0 0 0 0 0 0 0 0 0 0 0 0 0 0 0 0 127 0" result="hardAlpha"/>
<feOffset dy="16.0772"/>
<feGaussianBlur stdDeviation="8.03858"/>
<feColorMatrix type="matrix" values="0 0 0 0 0 0 0 0 0 0 0 0 0 0 0 0 0 0 0.25 0"/>
<feBlend mode="normal" in2="BackgroundImageFix" result="effect1_dropShadow_1274_1200"/>
<feBlend mode="normal" in="SourceGraphic" in2="effect1_dropShadow_1274_1200" result="shape"/>
</filter>
<linearGradient id="paint0_linear_1274_1200" x1="241.157" y1="0" x2="241.157" y2="482.315" gradientUnits="userSpaceOnUse">
<stop stop-color="#F687B3"/>
<stop offset="1" stop-color="#5EA3F5"/>
</linearGradient>
<linearGradient id="paint1_linear_1274_1200" x1="89.5147" y1="319.116" x2="327.869" y2="188.667" gradientUnits="userSpaceOnUse">
<stop stop-color="#63B3ED"/>
<stop offset="1" stop-color="#7F63ED"/>
</linearGradient>
<linearGradient id="paint2_linear_1274_1200" x1="118.912" y1="372.831" x2="357.267" y2="242.382" gradientUnits="userSpaceOnUse">
<stop stop-color="#3182CE"/>
<stop offset="1" stop-color="#31CECE"/>
</linearGradient>
<linearGradient id="paint3_linear_1274_1200" x1="60.1178" y1="265.403" x2="298.472" y2="134.954" gradientUnits="userSpaceOnUse">
<stop stop-color="#81E6D9"/>
<stop offset="1" stop-color="#A1E681"/>
</linearGradient>
<clipPath id="clip0_1274_1200">
<rect width="482.315" height="482.315" fill="white"/>
</clipPath>
</defs>
</svg>
