<svg width="1024" height="1024" viewBox="0 0 1024 1024" fill="none" xmlns="http://www.w3.org/2000/svg">
<path d="M442 40.4145C485.316 15.4059 538.684 15.4059 582 40.4145L885.405 215.585C928.721 240.594 955.405 286.812 955.405 336.829V687.171C955.405 737.188 928.721 783.406 885.405 808.414L582 983.586C538.684 1008.59 485.316 1008.59 442 983.586L138.595 808.414C95.2789 783.406 68.595 737.188 68.595 687.171V336.829C68.595 286.812 95.2788 240.594 138.595 215.585L442 40.4145Z" fill="url(#paint0_linear_857_103)"/>
<g filter="url(#filter0_d_857_103)">
<path d="M111.604 534.181L267.639 819.286C276.256 835.031 287.952 845.193 293.76 841.98L788.064 568.597L866.637 319.56C868.832 312.598 859.158 294.921 852.135 293.063L600.821 226.471L106.517 499.854C100.709 503.066 102.987 518.436 111.604 534.181Z" fill="#E6BE94"/>
<path d="M558.147 473.93L863.143 305.247L862.082 303.308C859.134 298.295 855.387 293.919 852.133 293.059L600.821 226.47L464.098 302.087L558.147 473.93Z" fill="#FFD788"/>
<path d="M111.604 534.181L267.639 819.286C276.256 835.031 287.952 845.193 293.76 841.98L788.064 568.597C776.446 575.022 753.057 554.699 735.823 523.209C718.588 491.719 714.032 460.98 725.65 454.555C714.032 460.98 690.642 440.657 673.408 409.167C656.174 377.677 651.618 346.938 663.235 340.513C651.618 346.938 628.228 326.615 610.994 295.125C593.76 263.635 589.204 232.896 600.821 226.471L106.517 499.854C100.709 503.066 102.987 518.436 111.604 534.181Z" fill="#FFCD00"/>
<path d="M725.65 454.554C714.032 460.979 690.642 440.656 673.408 409.166C657.625 380.328 652.64 352.356 660.805 342.873L158.842 620.493L221.256 734.535L723.219 456.915C723.972 456.044 724.67 455.096 725.65 454.554Z" fill="url(#paint1_linear_857_103)"/>
<path d="M788.064 568.596C776.446 575.021 753.057 554.698 735.822 523.209C720.039 494.37 715.054 466.398 723.219 456.915L221.256 734.535L268.066 820.066C276.683 835.811 288.379 845.972 294.187 842.76L785.633 570.957C786.386 570.086 787.084 569.138 788.064 568.596Z" fill="url(#paint2_linear_857_103)"/>
<path d="M601.677 228.034C590.06 234.46 594.616 265.199 611.85 296.689C627.633 325.527 648.468 344.733 660.806 342.877L158.844 620.496L112.033 534.965C103.416 519.22 101.138 503.85 106.946 500.637L598.392 228.835C599.527 228.662 600.698 228.576 601.677 228.034Z" fill="url(#paint3_linear_857_103)"/>
<path d="M833.153 425.682L866.634 319.555C868.83 312.593 859.156 294.917 852.131 293.055L745.039 264.683L833.153 425.682Z" fill="#5C546A"/>
<path d="M863.184 305.224C860.136 299.37 855.819 294.033 852.133 293.058L745.04 264.683L789.525 345.967L863.184 305.224Z" fill="#868491"/>
</g>
<defs>
<filter id="filter0_d_857_103" x="92" y="133.333" width="868.891" height="723.244" filterUnits="userSpaceOnUse" color-interpolation-filters="sRGB">
<feFlood flood-opacity="0" result="BackgroundImageFix"/>
<feColorMatrix in="SourceAlpha" type="matrix" values="0 0 0 0 0 0 0 0 0 0 0 0 0 0 0 0 0 0 127 0" result="hardAlpha"/>
<feOffset dy="4"/>
<feGaussianBlur stdDeviation="2"/>
<feColorMatrix type="matrix" values="0 0 0 0 0 0 0 0 0 0 0 0 0 0 0 0 0 0 0.25 0"/>
<feBlend mode="normal" in2="BackgroundImageFix" result="effect1_dropShadow_857_103"/>
<feBlend mode="normal" in="SourceGraphic" in2="effect1_dropShadow_857_103" result="shape"/>
</filter>
<linearGradient id="paint0_linear_857_103" x1="512" y1="0" x2="512" y2="1024" gradientUnits="userSpaceOnUse">
<stop stop-color="#F687B3"/>
<stop offset="1" stop-color="#5EA3F5"/>
</linearGradient>
<linearGradient id="paint1_linear_857_103" x1="190.049" y1="677.514" x2="696.098" y2="400.557" gradientUnits="userSpaceOnUse">
<stop stop-color="#63B3ED"/>
<stop offset="1" stop-color="#7F63ED"/>
</linearGradient>
<linearGradient id="paint2_linear_857_103" x1="252.463" y1="791.556" x2="758.512" y2="514.6" gradientUnits="userSpaceOnUse">
<stop stop-color="#3182CE"/>
<stop offset="1" stop-color="#31CECE"/>
</linearGradient>
<linearGradient id="paint3_linear_857_103" x1="127.636" y1="563.475" x2="633.685" y2="286.519" gradientUnits="userSpaceOnUse">
<stop stop-color="#81E6D9"/>
<stop offset="1" stop-color="#A1E681"/>
</linearGradient>
</defs>
</svg>
